<?xml version="1.0" standalone="no"?>
<!DOCTYPE svg PUBLIC "-//W3C//DTD SVG 20010904//EN"
 "http://www.w3.org/TR/2001/REC-SVG-20010904/DTD/svg10.dtd">
<svg version="1.0" xmlns="http://www.w3.org/2000/svg"
 width="291.000000pt" height="140.000000pt" viewBox="0 0 291.000000 140.000000"
 preserveAspectRatio="xMidYMid meet">

<g transform="translate(0.000000,140.000000) scale(0.100000,-0.100000)"
fill="#000000" stroke="none">
<path d="M222 1183 l3 -208 33 0 c30 0 46 15 206 205 158 186 172 205 149 208
-13 2 -31 -2 -38 -8 -8 -7 -79 -88 -157 -181 l-143 -169 -3 180 -2 180 -25 0
-25 0 2 -207z"/>
<path d="M1190 1133 c0 -71 4 -134 9 -142 5 -7 32 -16 60 -19 42 -4 51 -2 51
11 0 11 -12 17 -42 19 l-43 3 -3 78 -3 77 46 0 c33 0 45 4 45 15 0 11 -12 15
-45 15 -45 0 -45 0 -45 35 0 24 -5 35 -15 35 -13 0 -15 -21 -15 -127z"/>
<path d="M670 1171 c-5 -11 -10 -51 -10 -90 0 -103 12 -113 132 -109 60 2 93
7 95 15 3 9 -21 13 -88 15 -96 3 -120 15 -106 52 5 13 23 16 102 16 l95 0 0
41 c0 74 -8 79 -115 79 -83 0 -96 -2 -105 -19z m188 -43 l3 -28 -85 0 c-83 0
-86 1 -86 23 0 13 3 27 7 31 4 4 41 5 83 4 74 -3 75 -4 78 -30z"/>
<path d="M930 1079 c0 -84 3 -110 13 -107 8 3 13 34 15 97 l3 92 77 -3 77 -3
3 -92 c2 -74 6 -93 17 -93 12 0 15 19 15 98 0 63 -4 102 -12 110 -8 8 -47 12
-110 12 l-98 0 0 -111z"/>
<path d="M1340 1100 c0 -119 10 -130 115 -130 105 0 115 11 115 130 0 73 -3
90 -15 90 -12 0 -15 -16 -15 -83 0 -51 -5 -88 -12 -95 -7 -7 -39 -12 -73 -12
-34 0 -66 5 -73 12 -7 7 -12 44 -12 95 0 67 -3 83 -15 83 -12 0 -15 -17 -15
-90z"/>
<path d="M1620 1180 c-12 -7 -15 -31 -15 -107 0 -80 3 -98 15 -98 12 0 16 18
18 93 l3 92 64 0 c51 0 65 3 65 15 0 12 -14 15 -67 15 -38 0 -75 -5 -83 -10z"/>
<path d="M1800 1175 c0 -12 17 -15 95 -15 l95 0 0 -30 0 -30 -95 0 -95 0 0
-47 c0 -74 5 -78 120 -81 l100 -4 0 99 c0 64 -4 103 -12 111 -8 8 -47 12 -110
12 -80 0 -98 -3 -98 -15z m190 -140 l0 -36 -77 3 -78 3 -3 33 -3 32 80 0 81 0
0 -35z"/>
<path d="M2405 988 c-22 -5 -105 -25 -185 -44 -80 -19 -200 -53 -268 -76
l-122 -42 -29 31 c-32 35 -71 57 -118 68 l-33 7 0 -87 0 -86 -46 -19 c-25 -11
-48 -20 -50 -20 -3 0 -13 20 -23 44 -24 56 -81 113 -140 140 -41 19 -68 21
-253 24 -181 3 -209 2 -214 -12 -9 -23 12 -77 46 -117 47 -58 88 -72 228 -77
110 -4 124 -7 137 -26 20 -28 19 -52 -5 -76 -19 -19 -33 -20 -215 -20 l-195 0
0 -141 0 -142 -36 -39 c-46 -51 -64 -95 -64 -155 0 -52 9 -93 19 -93 3 0 23
27 45 60 53 84 149 169 344 308 196 139 237 163 440 267 83 43 150 80 148 82
-2 3 -27 -7 -55 -21 -28 -15 -51 -24 -51 -22 0 2 27 27 60 54 54 46 75 55 257
115 109 36 214 68 233 72 66 13 18 -13 -110 -60 -154 -56 -302 -117 -297 -122
2 -2 26 6 53 16 305 121 476 181 567 197 20 3 37 10 37 15 0 11 -53 10 -105
-3z"/>
<path d="M2295 904 c-88 -32 -124 -97 -125 -221 l0 -83 -160 0 -160 0 0 60 c0
33 -3 60 -7 60 -5 0 -48 -22 -98 -49 l-90 -48 -3 -184 c-2 -117 1 -199 8 -224
20 -70 97 -135 160 -135 l30 0 0 160 0 160 160 0 160 0 2 -163 3 -162 30 4
c49 5 99 37 131 82 l29 42 3 359 c3 402 9 372 -73 342z"/>
<path d="M864 753 c-19 -43 -104 -275 -104 -280 0 -3 14 -3 32 -1 30 3 34 8
73 103 23 55 52 126 63 158 l22 57 -36 0 c-31 0 -37 -4 -50 -37z"/>
<path d="M362 547 l-134 -72 56 -3 c49 -3 65 2 138 40 76 39 83 46 86 76 2 17
0 32 -5 32 -4 -1 -68 -33 -141 -73z"/>
<path d="M2402 586 l3 -37 167 -80 c153 -73 171 -80 219 -77 l53 3 -205 107
c-259 136 -241 129 -237 84z"/>
<path d="M1384 451 c-65 -49 -135 -103 -154 -119 l-35 -31 85 -86 c110 -112
152 -137 230 -137 62 0 130 29 130 56 0 7 -46 58 -102 112 -56 54 -117 114
-135 133 l-34 33 38 20 c58 31 115 90 100 104 -2 3 -58 -36 -123 -85z"/>
<path d="M12 329 c2 -16 58 -49 242 -145 132 -68 243 -124 248 -124 4 0 8 15
8 33 l0 34 -214 104 c-118 57 -212 107 -209 112 2 4 -14 7 -37 7 -36 0 -41 -3
-38 -21z"/>
<path d="M703 327 c-17 -36 -123 -306 -123 -312 0 -3 15 -5 34 -5 30 0 36 4
51 42 36 89 105 279 105 288 0 6 -13 10 -28 10 -20 0 -32 -7 -39 -23z"/>
<path d="M2580 212 c-169 -84 -175 -88 -178 -119 -2 -20 1 -33 8 -33 10 0 447
225 459 236 2 2 -22 4 -55 3 -54 0 -75 -8 -234 -87z"/>
<path d="M1066 169 c-26 -29 -45 -57 -43 -63 2 -6 23 -16 47 -23 35 -10 46
-10 52 0 11 17 10 137 -1 137 -5 0 -30 -23 -55 -51z"/>
</g>
</svg>
