<?xml version="1.0" standalone="no"?>
<!DOCTYPE svg PUBLIC "-//W3C//DTD SVG 20010904//EN"
 "http://www.w3.org/TR/2001/REC-SVG-20010904/DTD/svg10.dtd">
<svg version="1.0" xmlns="http://www.w3.org/2000/svg"
 width="503.000000pt" height="235.000000pt" viewBox="0 0 503.000000 235.000000"
 preserveAspectRatio="xMidYMid meet">

<g transform="translate(0.000000,235.000000) scale(0.100000,-0.100000)"
fill="#000000" stroke="none">
<path d="M897 1775 c-70 -55 -84 -82 -71 -132 9 -38 60 -83 93 -83 38 1 42 13
39 138 l-3 122 -58 -45z"/>
<path d="M3981 1736 c-30 -16 -50 -52 -51 -89 0 -22 24 -52 128 -155 125 -125
273 -309 327 -407 15 -27 33 -57 41 -65 7 -9 25 -42 40 -75 15 -33 32 -67 39
-75 19 -24 84 -187 122 -305 19 -60 39 -118 44 -127 15 -30 10 -58 -18 -95
-25 -32 -28 -45 -28 -113 0 -68 3 -81 27 -113 51 -66 84 -82 168 -82 62 0 80
4 108 23 75 54 105 132 88 228 -8 39 -92 134 -119 134 -8 0 -19 16 -25 38 -30
110 -85 288 -92 297 -4 6 -23 48 -40 95 -18 47 -38 92 -45 100 -6 8 -26 45
-43 82 -17 38 -42 83 -56 101 -15 19 -26 37 -26 40 0 6 -97 148 -153 222 -37
50 -189 216 -253 277 -81 77 -129 94 -183 64z"/>
<path d="M668 1568 c-58 -62 -188 -229 -246 -316 -208 -309 -340 -652 -396
-1033 -15 -101 -8 -136 34 -174 29 -26 91 -26 120 0 28 25 37 49 50 133 36
223 127 498 236 712 97 192 237 399 342 508 55 57 60 73 38 126 -33 80 -124
102 -178 44z"/>
</g>
</svg>
