<svg width="283.1879" height="669.68268" xmlns="http://www.w3.org/2000/svg">
 <title>feeling_proud</title>

 <g>
  <title>background</title>
  <rect fill="none" id="canvas_background" height="671.68268" width="285.1879" y="-1" x="-1"/>
 </g>
 <g>
  <title>Layer 1</title>
  <path id="svg_24" fill="#2f2e41" d="m97.66146,1.00015a8.55394,8.55394 0 0 0 -4.96126,1.1083c-1.476,1.0108 -2.40629,2.78162 -3.35588,4.42947a52.98576,52.98576 0 0 1 -14.43428,16.30464c-4.28894,3.142 -9.74169,7.05966 -9.00789,12.85269a17.37163,17.37163 0 0 0 2.09058,5.4255c3.9566,7.987 14.75357,14.15926 13.69156,23.27309c3.931,-6.58092 -1.327,-9.835 2.604,-16.41586c1.87205,-3.134 5.12412,-6.67168 7.95054,-4.70353c0.94637,0.659 1.56777,1.84095 2.55314,2.41917c2.35122,1.37972 4.85259,-1.258 6.93387,-3.12633c7.17685,-6.44263 17.383,-4.7548 26.31387,-2.74743c4.21624,0.94767 8.8473,2.191 11.33971,6.2207c3.277,5.29821 -3.11344,11.02034 -4.72807,17.01049a3.264,3.264 0 0 0 3.50293,4.06214c2.67975,-0.26434 5.8542,-0.481 6.01278,-1.65694c3.37154,0.12 7.50269,-0.26181 8.94728,-3.7725a14.76216,14.76216 0 0 0 0.69252,-4.29319c0.5302,-5.89718 3.0331,-11.27719 4.69119,-16.88993s2.37906,-12.1905 -0.41909,-17.1668a19.86362,19.86362 0 0 0 -3.666,-4.45557c-15.87901,-15.36675 -36.75642,-17.90092 -56.7515,-17.87811z"/>
  <path id="svg_25" fill="#ffb8b8" d="m85.1377,75.9052s3.4534,28.7784 -9.20909,31.08068s11.51136,41.4409 11.51136,41.4409l57.55681,6.90682l-13.81364,-46.04545s-9.20909,-3.45341 -3.4534,-26.47613s-42.59204,-6.90682 -42.59204,-6.90682z"/>
  <polygon id="svg_26" fill="#ffb8b8" points="50.02799987792969,570.3179931640625 54.63299560546875,633.6309814453125 78.80599975585938,633.6309814453125 71.9000015258789,570.3179931640625 50.02799987792969,570.3179931640625 "/>
  <polygon id="svg_27" fill="#ffb8b8" points="227.30299377441406,450.6000061035156 230.75599670410156,503.552001953125 257.2330017089844,492.0409851074219 246.87197875976562,448.2980041503906 227.30299377441406,450.6000061035156 "/>
  <path id="svg_28" fill="#2f2e41" d="m32.761,328.5796s1.15113,66.7659 8.058,88.63749s5.75568,23.02272 4.60455,26.47613s-2.30228,1.15114 -2.30228,6.90682s-2.30227,96.69544 0,104.7534s-6.90681,21.87159 0,23.02272s39.13863,0 40.28977,-6.90682s-9.20909,-9.20909 -4.60454,-13.81363s11.51136,-98.99772 11.51136,-98.99772l16.11591,-65.61476l29.92954,-34.53409l63.31244,0l19.56932,75.975s-8.058,21.87159 -2.30228,21.87159s40.28977,6.90682 40.28977,-18.41818s-11.51136,-100.14886 -13.81361,-102.45113s1.15113,-10.36023 -2.30228,-13.81364s-43.74317,-27.62727 -58.70794,-32.23181s-35.95778,-10.08487 -35.95778,-10.08487l-113.68995,49.2235z"/>
  <path id="svg_29" fill="#2f2e41" d="m257.23256,482.83185s-17.267,-5.75568 -25.325,11.51137s-4.60454,21.87159 -4.60454,21.87159s26.47613,9.20909 31.08068,4.60454c2.00333,-2.00334 8.36471,-2.69926 14.91273,-2.84621c9.97289,-0.22381 12.62625,-14.33323 3.20748,-17.61885q-0.42145,-0.147 -0.85317,-0.25539c-9.20909,-2.30227 -18.41818,-17.26705 -18.41818,-17.26705z"/>
  <circle id="svg_30" fill="#ffb8b8" r="34.53409" cy="60.36486" cx="111.03826"/>
  <path id="svg_31" fill="#00bfa6" d="m66.14395,121.37508s56.40567,11.51136 70.21931,-6.90682s19.56931,51.80113 19.56931,51.80113l6.90682,73.67272l-10.36023,40.28977s-54.1034,43.74318 -71.37044,47.19658s-43.74318,5.75569 -43.74318,5.75569s8.058,-127.77613 8.058,-130.0784s20.72041,-81.73067 20.72041,-81.73067z"/>
  <path id="svg_32" fill="#2f2e41" d="m83.29828,99.7859s-12.54979,-7.18923 -16.0032,-0.28241s-35.68522,24.17385 -39.13863,24.17385s6.90682,95.54431 2.30227,107.05567s-26.47613,95.54433 -13.81363,102.45114s3.45341,-6.90682 16.11591,10.36022s74.82385,17.267 78.27726,10.36023s-27.62727,-58.708 -21.87159,-107.05567s14.96477,-115.11362 6.90682,-124.32271s-12.77521,-22.74032 -12.77521,-22.74032z"/>
  <path id="svg_33" fill="#2f2e41" d="m124.85195,107.56144l1.60341,-5.518s47.89544,15.87824 50.19772,26.23847s1.15113,82.88181 -6.90682,88.63749s-19.56932,14.96477 -11.51136,28.7784s17.267,28.77841 24.17386,29.92954s19.56931,9.20909 16.1159,17.267s-44.89431,-6.90682 -44.89431,-6.90682s-27.62727,-20.72045 -26.47613,-52.95227s-2.30227,-125.47381 -2.30227,-125.47381z"/>
  <path id="svg_34" fill="#ffb8b8" d="m165.14166,243.39552l-27.62727,51.80113s-40.28976,41.4409 -17.267,46.04545s35.68522,-37.9875 35.68522,-37.9875l29.92955,-42.592l-20.7205,-17.26708z"/>
  <path id="svg_35" fill="#2f2e41" d="m99.34376,10.03591a7.83806,7.83806 0 0 0 -4.03868,0.78334a9.41322,9.41322 0 0 0 -2.73182,3.13072a39.77267,39.77267 0 0 1 -11.7501,11.524c-3.49138,2.22077 -7.93014,4.98972 -7.3328,9.0842a11.35949,11.35949 0 0 0 1.70182,3.8347a30.16344,30.16344 0 0 1 3.66519,18.80068l9.60011,-13.954c1.52393,-2.21507 4.17125,-4.7155 6.47207,-3.32442c0.77039,0.46577 1.27623,1.30117 2.07836,1.70985c1.914,0.97518 3.95021,-0.88912 5.64447,-2.20967c5.84225,-4.55361 14.15049,-3.36066 21.42059,-1.94187c3.43219,0.66981 7.20207,1.54859 9.231,4.39676c3.37169,4.73311 -0.149,11.5721 1.81882,17.04a5.02339,5.02339 0 0 0 2.07852,-3.31717c2.74457,0.08484 6.1075,-0.185 7.28345,-2.66638a9.18757,9.18757 0 0 0 0.56374,-3.03439c0.43161,-4.16809 2.46907,-7.97065 3.81883,-11.93769s1.93666,-8.61616 -0.34116,-12.13338a14.68107,14.68107 0 0 0 -2.98426,-3.14917c-12.92622,-10.8611 -29.92132,-12.65223 -46.19815,-12.63611z"/>
  <path id="svg_36" fill="#2f2e41" d="m165.14166,123.67734l10.72528,2.84686s24.95995,63.919 19.20427,107.66222s-9.20909,34.53409 -9.20909,34.53409s-9.20909,-20.72046 -29.92955,-16.11591l9.20909,-128.92726z"/>
  <path id="svg_37" fill="#2f2e41" d="m51.62289,625.26334c-2.77592,3.77228 -2.21935,9.16459 -4.67828,13.15075c-2.13144,3.45526 -6.14837,5.26695 -8.81439,8.32869a22.32616,22.32616 0 0 0 -2.26617,3.25987c-2.47311,4.14255 -4.4833,9.45174 -2.04761,13.61641c1.95936,3.35022 6.07786,4.65961 9.855,5.552c4.77407,1.128 9.73436,2.03071 14.56354,1.16876s9.54882,-3.819 11.27067,-8.41239a32.50011,32.50011 0 0 1 1.2051,-3.4007c2.61747,-5.15294 10.82749,-5.20864 13.50628,-10.33c1.87466,-3.584 0.15138,-7.91623 -1.57118,-11.57578l-5.26109,-11.1771c-1.74592,-3.70919 -8.82362,-1.57608 -12.51339,-2.46492c-4.81224,-1.15915 -9.78658,-2.43633 -13.24848,2.28441z"/>
  <path id="svg_38" fill="#ffb8b8" d="m13.19168,266.41824l48.34772,74.82386s29.92954,37.98749 39.13863,20.72045s-32.23181,-46.04545 -32.23181,-46.04545l-31.08068,-57.55676l-24.17386,8.0579z"/>
  <path id="svg_39" fill="#2f2e41" d="m37.36554,125.97962l-9.20909,-2.30228s-18.41818,5.75568 -23.02272,29.92954s-1.15114,120.86931 4.60454,122.02044s28.42725,-16.83663 32.05624,-13.02286s-7.88238,-15.75554 -4.429,-26.11577s0.00003,-110.50907 0.00003,-110.50907z"/>
 </g>
</svg>