<svg width="214.25" height="594.32263" xmlns="http://www.w3.org/2000/svg">
 <title>online_cv</title>

 <g>
  <title>background</title>
  <rect fill="none" id="canvas_background" height="596.32263" width="216.25" y="-1" x="-1"/>
 </g>
 <g>
  <title>Layer 1</title>
  <path id="svg_37" fill="#a0616a" d="m141.25,316.5014s-9,44 6,40s9,-42 9,-42l-15,2z"/>
  <path id="svg_38" fill="#d0cde1" d="m183.25,134.5014l-10,0s-11,8 -10,17s-18,87 -18,97s-4,13 -4,19s2,10 0,13s-6,21 -5,28a56.39446,56.39446 0 0 1 0,14l25,0s18,-61 22,-64s6,-8 6,-11s-2,-3 3,-7s2,-22 2,-22l7,-18l-18,-66z"/>
  <path id="svg_39" opacity="0.1" d="m183.25,134.5014l-10,0s-11,8 -10,17s-18,87 -18,97s-4,13 -4,19s2,10 0,13s-6,21 -5,28a56.39446,56.39446 0 0 1 0,14l25,0s18,-61 22,-64s6,-8 6,-11s-2,-3 3,-7s2,-22 2,-22l7,-18l-18,-66z"/>
  <path id="svg_40" fill="#a0616a" d="m43.25,292.0014s-9,44 6,40s9,-42 9,-42l-15,2z"/>
  <polygon id="svg_41" fill="#a0616a" points="46.25,497.0009765625 40.25,522.0009765625 62.25,536.0009765625 68.25,506.0009765625 46.25,497.0009765625 "/>
  <polygon id="svg_42" fill="#a0616a" points="150.25,528.0009765625 139.25,543.0009765625 152.25,558.0009765625 170.25,558.0009765625 170.25,528.0009765625 150.25,528.0009765625 "/>
  <path id="svg_43" fill="#2f2e41" d="m173.25,545.0014l-6,0a22.578,22.578 0 0 0 -9,0c-6,1 -14.14167,-8.625 -14.14167,-8.625l-7.85833,6.625s-16,4 -8,23l18,11s9,19 27,16s5,-23 5,-23l-5,-25z"/>
  <path id="svg_44" fill="#2f2e41" d="m46.25,510.0014l-1.52119,-6.66171l-13.47881,3.66171s-28,-18 -28,6s22,32 22,32s8,-1 8,6s21,18 29,14s8,-14 8,-14l-2,-28l-9,2s-17,-1 -14,-5s1,-10 1,-10z"/>
  <path id="svg_45" fill="#2f2e41" d="m75.25,280.0014s-12,16 -12,25s-4,89 -4,89s-22,102 -16,108s24,15 27,12s24,-112 24,-112l25,-67l23,96s-1,83 3,84s6,2 4,6s-5,12 -5,12s25,6 30,2s6,-101 0,-135s1,-112 1,-112l-100,-8z"/>
  <circle id="svg_46" fill="#a0616a" r="30" cy="56.5014" cx="111.75"/>
  <path id="svg_47" fill="#a0616a" d="m102.75,75.5014s4,21 0,27s54,2 54,2s-28,-32 -25,-38s-29,9 -29,9z"/>
  <path id="svg_48" fill="#d0cde1" d="m77.25,110.0014s20,-26 45,-21c6.74943,1.34988 12.91575,2.69977 18.32188,3.95127c19.04912,4.40979 34.88928,17.98555 41.39687,36.42373c1.6875,4.78125 2.53125,9.375 1.78125,13.125c-3,15 -1.5,133.5 -1.5,133.5s-8,3 -7,7s8,9 1,9s-113,-4 -111,-7s12,-175 12,-175z"/>
  <path id="svg_49" fill="#d0cde1" d="m87.25,110.0014l-10,0s-11,8 -10,17s-18,87 -18,97s-4,13 -4,19s2,10 0,13s-6,21 -5,28a56.39446,56.39446 0 0 1 0,14l25,0s18,-61 22,-64s6,-8 6,-11s-2,-3 3,-7s2,-22 2,-22l7,-18l-18,-66z"/>
  <polygon id="svg_50" opacity="0.1" points="72.6710205078125,283.6820068359375 102.75,217.50100708007812 87.71099853515625,287.885009765625 72.6710205078125,283.6820068359375 "/>
  <path id="svg_51" fill="#2f2e41" d="m101.28434,11.13413l0.01589,-2.47552a19.30356,19.30356 0 0 1 6.20625,0.21756a10.079,10.079 0 0 0 -0.9078,-4.33478a19.62057,19.62057 0 0 1 5.93438,1.76628l0.68923,-4.598l17.91122,6.277c6.42944,2.25322 13.22424,4.76214 17.39709,10.1475c4.65211,6.00388 4.98937,14.40485 3.20384,21.7873s-5.41842,14.16484 -8.12908,21.26a50.28061,50.28061 0 0 1 -3.80544,8.74622c-5.41359,8.72668 -17.63566,11.84086 -27.21253,8.13337c-3.53438,-1.36826 -6.87167,-3.64954 -8.66286,-6.98954a51.87549,51.87549 0 0 1 -2.335,-6.37578c-1.66427,-4.40914 -4.09465,-13.63272 -8.13463,-16.05941c-1.77775,-1.06784 -4.48877,3.51676 -6.02384,2.12239c-3.94489,-3.58331 -3.96854,-9.84523 -2.40744,-14.941a110.33971,110.33971 0 0 1 5.5034,-14.94059c0.94066,-1.95346 10.75923,-10.03993 10.75732,-9.743z"/>
 </g>
</svg>