<svg width="223" height="477.13633" xmlns="http://www.w3.org/2000/svg">

 <g>
  <title>background</title>
  <rect fill="none" id="canvas_background" height="479.13633" width="225" y="-1" x="-1"/>
 </g>
 <g>
  <title>Layer 1</title>
  <polygon id="svg_24" fill="#ffb9b9" points="118.94999694824219,391.51800537109375 130.052001953125,397.572998046875 122.98699951171875,420.7860107421875 111.88600158691406,421.7950134277344 105.83000183105469,408.67498779296875 118.94999694824219,391.51800537109375 "/>
  <polygon id="svg_25" fill="#ffb9b9" points="84.63600158691406,437.9429931640625 84.63600158691406,449.04400634765625 67.47899627685547,448.03497314453125 67.71800231933594,438.89202880859375 84.63600158691406,437.9429931640625 "/>
  <polygon id="svg_26" fill="#2f2e41" points="122.98699951171875,258.2969970703125 116.9320068359375,333.9909973144531 97.75599670410156,445.00701904296875 67.47899627685547,440.969970703125 77.57099914550781,353.1659851074219 73.53399658203125,272.427001953125 122.98699951171875,258.2969970703125 "/>
  <path id="svg_27" fill="#2f2e41" d="m42.24758,201.77961l72.66561,1.00922l8.07394,55.50842l-49.453,23.21264l-12.11093,44.40674l61.5639,65.60083l-24.22186,30.27735s-34.31432,-46.42523 -59.54543,-72.66559s-13.12018,-105.97064 -13.12018,-105.97064l16.14795,-41.37897z"/>
  <circle id="svg_28" fill="#ffb9b9" r="22.20337" cy="36.26344" cx="85.64505"/>
  <path id="svg_29" fill="#ffb9b9" d="m93.71902,51.40216l0,22.20337l-15.13867,24.22181s-23.21262,-17.15714 -18.1664,-21.19412s6.05547,-35.32355 6.05547,-35.32355l27.2496,10.09249z"/>
  <polygon id="svg_30" fill="#fff" points="93.718994140625,69.56900024414062 108.85800170898438,87.73500061035156 102.802001953125,213.8900146484375 55.36799621582031,212.88101196289062 47.29399871826172,102.87399291992188 57.38600158691406,74.61500549316406 64.30899810791016,65.19599914550781 76.56199645996094,83.697998046875 93.718994140625,69.56900024414062 "/>
  <path id="svg_31" fill="#2f2e41" d="m117.94093,135.16941l11.10168,42.38828l-11.10168,42.38824l18.16639,24.22186l16.14791,-76.70257s-12.111,-62.57309 -13.1202,-69.63785s-3.02772,-8.074 -3.02772,-8.074l-8.074,1.00925l-10.09238,44.40679z"/>
  <polygon id="svg_32" fill="#2f2e41" points="37.202003479003906,151.31700134277344 30.137001037597656,164.43800354003906 28.118000030517578,186.6409912109375 32.154998779296875,211.87200927734375 18.0260009765625,235.08499145507812 3.8969993591308594,171.50201416015625 19.03499984741211,89.75300598144531 25.090999603271484,89.75300598144531 37.202003479003906,151.31700134277344 "/>
  <path id="svg_33" fill="#2f2e41" d="m122.98712,390.50825s14.12936,4.037 19.17564,5.0462s-3.02773,20.18488 -3.02773,20.18488s-5.0462,26.24035 -6.05546,31.28656s-8.074,22.20343 -17.15717,24.22186s-3.02772,-35.32355 -3.02772,-35.32355s-4.037,-12.1109 -4.037,-16.14789s6.05546,-2.01849 6.05546,-2.01849c16.1479,-2.01849 8.07398,-27.24957 8.07398,-27.24957z"/>
  <path id="svg_34" fill="#2f2e41" d="m89.682,468.21998c-1.00925,6.05548 1.00926,6.05548 -15.13867,8.074s-12.11088,-11.10171 -12.11088,-11.10171a84.80035,84.80035 0 0 1 4.037,-18.16638c3.02774,-8.074 19.17564,2.01849 19.17564,2.01849s5.04616,13.12012 4.03691,19.1756z"/>
  <path id="svg_35" fill="#2f2e41" d="m66.44312,42.0145l-0.526,8.97562s-6.5124,-14.72672 -7.52165,-29.86536s16.14792,-18.16638 26.24036,-19.17563s27.24962,6.05545 27.24962,14.12943s-18.1664,6.05548 -25.23111,4.037s-10.09244,15.13867 -10.09244,15.13867l-4.037,1.00925l-6.08178,5.75102z"/>
  <polygon id="svg_36" fill="#fff" points="99.67599487304688,76.71600341796875 93.718994140625,69.56900024414062 76.56199645996094,83.697998046875 93.718994140625,95.80900573730469 99.67599487304688,76.71600341796875 "/>
  <polygon id="svg_37" fill="#fff" points="57.38600158691406,74.61500549316406 64.45099639892578,65.53199768066406 76.56199645996094,83.697998046875 61.422996520996094,94.80000305175781 57.38600158691406,74.61500549316406 "/>
  <path id="svg_38" fill="#2f2e41" d="m120.96864,149.2988l-4.037,38.35129l8.07393,23.21265l5.04622,22.20337s-0.00006,21.19415 -20.18489,22.20337s-37.342,-63.5824 -37.342,-63.5824s-3.02773,14.12939 -5.04622,22.20337s-36.3328,40.36981 -36.3328,40.36981s-8.07394,-1.00928 -15.13866,-17.15716s14.12942,-31.28656 14.12942,-31.28656l6.05549,-21.19416l-2.01849,-26.24035l-14.12949,-68.62864l41.88364,-21.69876l-4.5416,58.03156l15.13866,45.416l22.708,-100.4198l7.56933,5.55085l32.29583,13.12018l-14.12937,59.54538z"/>
  <polygon id="svg_39" fill="#3f3d56" points="222.73800659179688,477.135986328125 -35,477.135986328125 -35,475.030029296875 223.1199951171875,475.030029296875 222.73800659179688,477.135986328125 "/>
 </g>
</svg>