<svg width="246" height="576" xmlns="http://www.w3.org/2000/svg">
 <title>software engineer</title>

 <g>
  <title>background</title>
  <rect fill="none" id="canvas_background" height="578" width="248" y="-1" x="-1"/>
 </g>
 <g>
  <title>Layer 1</title>
  <polygon id="svg_25" opacity="0.1" points="176.60400390625,224.20999145507812 136.76800537109375,431.9940185546875 133.80902099609375,427.3900146484375 170.9639892578125,226.57199096679688 176.60400390625,224.20999145507812 "/>
  <path id="svg_33" fill="#47465a" d="m175.3875,204.89835l11.94287,0a0,0 0 0 1 0,0l0,17.23649a4.4376,4.4376 0 0 1 -4.4376,4.4376l-3.06767,0a4.4376,4.4376 0 0 1 -4.4376,-4.4376l0,-17.23649a0,0 0 0 1 0,0z"/>
  <rect id="svg_51" fill="#ff6584" height="89.79267" width="89.79267" y="49.4199" x="106.60543"/>
  <rect id="svg_52" opacity="0.1" height="89.79267" width="89.79267" y="49.4199" x="106.60543"/>
  <path id="svg_53" fill="#fbbebe" d="m137.529,90.97374s12.66681,34.30595 0,40.63936s45.38941,0 45.38941,0l16.3613,-13.1946s-36.94487,-10.55568 -31.667,-34.83373s-30.08371,7.38897 -30.08371,7.38897z"/>
  <path id="svg_54" opacity="0.1" d="m137.529,90.97374s12.66681,34.30595 0,40.63936s45.38941,0 45.38941,0l16.3613,-13.1946s-36.94487,-10.55568 -31.667,-34.83373s-30.08371,7.38897 -30.08371,7.38897z"/>
  <path id="svg_55" fill="#fbbebe" d="m33.55563,435.08879s47.50054,67.02855 39.58378,85.501s-3.69448,30.08368 -19.528,36.41708s-20.05578,17.94465 -6.3334,17.41687s31.667,-4.22227 34.30594,-8.97232s8.97233,-27.44476 17.94465,-30.61147s25.8614,-15.30575 13.7224,-30.08369s-42.7254,-69.21048 -40.36292,-74.71681s-39.33245,5.04934 -39.33245,5.04934z"/>
  <path id="svg_56" fill="#9493b6" d="m132.779,302.61505s-98.16779,6.33341 -123.50142,30.08368s22.16692,112.418 27.44476,113.47352s46.445,-3.1667 44.86162,-14.77794s-29.55589,-59.11179 -29.55589,-59.11179s36.41708,-13.1946 56.47287,-16.3613s42.22271,-17.94465 42.22271,-17.94465l-17.94465,-35.36152z"/>
  <path id="svg_57" fill="#fbbebe" d="m87.91736,287.83711s1.58335,58.584 16.3613,60.69514s0,-44.86163 0,-44.86163l-0.52778,-17.94465l-15.83352,2.11114z"/>
  <path id="svg_58" fill="#00bfa6" d="m132.779,134.25205s-27.44476,-7.91676 -32.7226,13.19459s-6.86119,93.94552 -6.86119,93.94552l-9.50011,58.05622s17.41687,-5.27784 21.11135,-2.63892l22.16692,-27.97254l5.80563,-134.58487z"/>
  <path id="svg_59" opacity="0.1" d="m132.779,134.25205s-27.44476,-7.91676 -32.7226,13.19459s-6.86119,93.94552 -6.86119,93.94552l-9.50011,58.05622s17.41687,-5.27784 21.11135,-2.63892l22.16692,-27.97254l5.80563,-134.58487z"/>
  <path id="svg_60" fill="#fbbebe" d="m170.27932,446.32854s18.44475,36.2608 29.52821,35.733s21.63914,-7.389 26.917,14.25016s-1.05556,15.83352 5.27784,28.50033s7.389,34.83373 -4.75,40.11157s-23.22249,5.80562 -23.75027,0s10.55567,-5.80562 -2.11114,-26.38919s-39.58378,-58.05622 -50.66724,-61.75071s19.5556,-30.45516 19.5556,-30.45516z"/>
  <path id="svg_61" fill="#9493b6" d="m218.28,280.97592s38.00044,63.33406 13.1946,81.80649s-98.69557,53.834 -98.69557,53.834s39.58378,26.917 41.69492,35.8893s-19.00022,33.25038 -26.38919,33.77816s-29.02811,-24.27805 -52.2506,-30.61146s-37.47265,-51.72281 -12.139,-68.6119s49.0839,-44.86162 49.0839,-44.86162l-7.3847,-40.63369l92.88564,-20.58928z"/>
  <path id="svg_62" fill="#fbbebe" d="m185.33989,69.76705c0,22.44449 -22.99133,40.99863 -45.43582,40.99863a40.63935,40.63935 0 1 1 0,-81.27871c22.44449,-0.00004 45.43582,17.83554 45.43582,40.28008z"/>
  <path id="svg_63" fill="#00bfa6" d="m150.19585,128.44639s36.41708,-15.83351 36.41708,-17.94465s21.11136,4.75006 25.86141,8.97233s7.389,3.69449 10.55568,12.139s-15.83352,87.08433 -15.83352,87.08433s10.55568,60.69514 16.3613,66.50076s-46.9728,14.25019 -46.9728,14.25019s-34.83373,6.33341 -40.63935,8.97233s-16.3613,6.3334 -14.25016,0s11.08346,-11.08346 -4.22228,-19.00022c0,0 5.27784,-25.86141 0,-37.47265s-29.55589,-53.834 -10.02789,-84.44541s28.50033,-41.69493 28.50033,-41.69493s6.86123,5.80563 14.2502,2.63892z"/>
  <path id="svg_64" fill="#fbbebe" d="m161.8071,272.53138s-41.1671,18.2588 -53.5701,19.94897s-49.87557,11.19027 -29.292,19.63481s51.72281,-4.22227 51.72281,-4.22227l43.80606,-18.47243l-12.66677,-16.88908z"/>
  <path id="svg_65" opacity="0.1" d="m206.12933,126.82738s15.20178,-7.35331 19.424,18.5081s19.00022,107.66789 0,119.80692s-62.80628,31.667 -62.80628,31.667s-25.8614,-17.41686 -13.72237,-23.75027s41.16713,-24.27806 45.3894,-30.61146s8.48829,-77.027 1.09932,-88.63829s10.61593,-26.982 10.61593,-26.982z"/>
  <path id="svg_66" fill="#00bfa6" d="m205.08537,120.52964s21.11135,-1.05557 25.33362,24.80584s19.00022,107.66789 0,119.80692s-62.80627,31.667 -62.80627,31.667s-25.86141,-17.41686 -13.72238,-23.75027s41.16714,-24.27806 45.38941,-30.61146s-3.16675,-72.30635 -10.55568,-83.91762s16.3613,-38.00041 16.3613,-38.00041z"/>
  <path id="svg_67" fill="#ff6584" d="m129.89363,1.71489c-6.47937,0.88179 -13.42907,3.252 -16.68936,8.92037c-1.59532,2.77365 -2.11107,6.02743 -3.34,8.98173c-3.39144,8.15262 -11.628,13.02111 -17.57449,19.54846c-7.7497,8.50671 -11.59829,21.32569 -7.02776,31.88657c1.76985,4.08952 4.64406,7.59294 6.82374,11.47953c6.081,10.84307 6.40545,23.86541 6.5784,36.29605l0.34006,24.4413c0.05193,3.73208 0.09336,7.53953 -1.0303,11.09882s-3.63293,6.89273 -7.19212,8.01668a18.64007,18.64007 0 0 0 21.70774,-7.41277a19.04939,19.04939 0 0 1 -5.82228,16.89942c9.676,-2.27871 17.79017,-9.31636 22.90211,-17.84195s7.4824,-18.44239 8.54471,-28.32617c0.56186,-5.22762 0.75986,-10.63308 -0.8917,-15.62468c-1.16321,-3.51566 -3.1921,-6.66756 -5.1182,-9.83032c-4.96553,-8.15368 -9.43689,-16.82614 -11.03719,-26.23773s0.00641,-19.738 6.11766,-27.07224a24.45445,24.45445 0 0 1 19.315,-8.85635a21.50289,21.50289 0 0 1 17.9282,10.97538c1.4118,2.65764 3.42145,6.25954 6.28226,5.32575a15.52284,15.52284 0 0 0 1.549,-0.76054c3.19044,-1.45194 6.81442,1.41256 8.22125,4.62315c4.43733,10.12665 -3.73777,21.18131 -4.58276,32.20513c-0.786,10.25474 4.93126,19.92613 11.76532,27.612a90.71726,90.71726 0 0 0 44.35273,27.24968a12.44917,12.44917 0 0 1 -6.4337,-3.99663a84.47007,84.47007 0 0 0 20.75653,-1.74c-7.42625,-5.59639 -14.90482,-11.24044 -21.10471,-18.17083s-11.1103,-15.316 -12.44738,-24.5182c-1.79441,-12.34986 2.80533,-25.72347 -2.45361,-37.04082c-4.80791,-10.34671 -16.73195,-16.12851 -21.0866,-26.674c-4.42322,-10.71155 -7.29082,-20.01739 -19.00212,-24.68049c-12.78194,-5.08939 -26.54035,-8.65575 -40.35043,-6.7763z"/>
 </g>
</svg>